<svg width="47" height="19" viewBox="0 0 47 19" fill="none" xmlns="http://www.w3.org/2000/svg">
<path d="M8.58772 2.44956C8.03694 3.09126 7.1555 3.59757 6.27416 3.52517C6.164 2.65753 6.59545 1.73547 7.10043 1.16599C7.65121 0.506217 8.61526 0.0361519 9.39563 0C9.48742 0.903888 9.12932 1.7897 8.58772 2.44956ZM9.38654 3.69699C8.11038 3.62468 7.0179 4.41099 6.41195 4.41099C5.79691 4.41099 4.86957 3.73314 3.85972 3.75121C2.54693 3.76929 1.32584 4.50137 0.655632 5.66745C-0.721506 7.99952 0.297624 11.4525 1.62877 13.3506C2.28062 14.2907 3.06099 15.3211 4.08921 15.2849C5.06244 15.2488 5.44799 14.6613 6.62317 14.6613C7.80745 14.6613 8.14719 15.2849 9.17541 15.2669C10.2403 15.2488 10.9106 14.3269 11.5624 13.3868C12.306 12.3202 12.609 11.2807 12.6273 11.2264C12.609 11.2084 10.5709 10.4401 10.5525 8.12605C10.5342 6.19174 12.1592 5.26977 12.2326 5.21555C11.3145 3.87774 9.88233 3.73314 9.38654 3.69699ZM16.7588 1.07561V15.1675H18.9804V10.3498H22.056C24.8653 10.3498 26.8392 8.4516 26.8392 5.70369C26.8392 2.95587 24.902 1.0757 22.1294 1.0757L16.7588 1.07561ZM18.9804 2.91963H21.5418C23.4699 2.91963 24.5715 3.93197 24.5715 5.71264C24.5715 7.4933 23.4699 8.51477 21.5327 8.51477H18.9804V2.91963ZM30.897 15.2759C32.2925 15.2759 33.5869 14.58 34.1745 13.4772H34.2204V15.1674H36.2769V8.15316C36.2769 6.11943 34.6244 4.80875 32.0812 4.80875C29.7218 4.80875 27.9775 6.13751 27.9132 7.96336H29.9146C30.0799 7.09563 30.8969 6.52614 32.017 6.52614C33.3758 6.52614 34.1378 7.14985 34.1378 8.29786V9.07513L31.3651 9.23781C28.7854 9.39145 27.39 10.431 27.39 12.2389C27.39 14.0647 28.8313 15.2759 30.897 15.2759ZM31.4936 13.6037C30.3095 13.6037 29.5565 13.0433 29.5565 12.1846C29.5565 11.2988 30.2818 10.7836 31.6682 10.7022L34.1378 10.5486V11.3439C34.1378 12.6637 32.9994 13.6037 31.4937 13.6037M39.022 19C41.1887 19 42.2077 18.1866 43.0983 15.7189L47 4.94432H44.7415L42.125 13.2692H42.0791L39.4626 4.94432H37.1399L40.9039 15.2036L40.702 15.8273C40.3623 16.8848 39.8115 17.2916 38.8291 17.2916C38.6547 17.2916 38.3151 17.2736 38.1773 17.2555V18.9458C38.3058 18.9819 38.8566 19 39.0219 19" fill="black"/>
</svg>
