<svg width="13" height="13" viewBox="0 0 13 13" fill="none" xmlns="http://www.w3.org/2000/svg">
<g clip-path="url(#clip0_323_3007)">
<path d="M6.30959 0.5V5C6.30989 5.04099 6.32193 5.08104 6.34429 5.1154C6.36664 5.14976 6.39837 5.17699 6.43572 5.19388C6.47307 5.21076 6.51448 5.21659 6.55504 5.21068C6.5956 5.20476 6.63362 5.18735 6.66459 5.1605L6.69159 5.133L8.10859 3.988L9.44009 5.133C9.46587 5.16492 9.50025 5.1888 9.53916 5.20182C9.57808 5.21483 9.6199 5.21644 9.6597 5.20645C9.6995 5.19646 9.73561 5.1753 9.76376 5.14545C9.79192 5.1156 9.81094 5.07831 9.81859 5.038L9.82159 5V0.5H10.3086C10.5609 0.49992 10.8039 0.595203 10.9889 0.766749C11.1739 0.938294 11.2872 1.17342 11.3061 1.425L11.3086 1.5V11C11.3087 11.2523 11.2134 11.4953 11.0418 11.6803C10.8703 11.8653 10.6352 11.9786 10.3836 11.9975L10.3086 12H2.83559V0.5H6.30959ZM2.32359 0.5V12H1.80859C1.67599 12 1.54881 11.9473 1.45504 11.8536C1.36127 11.7598 1.30859 11.6326 1.30859 11.5V1C1.30859 0.867392 1.36127 0.740215 1.45504 0.646447C1.54881 0.552678 1.67599 0.5 1.80859 0.5H2.32359ZM9.29709 0.5V4.1885L8.24709 3.3215C8.229 3.29901 8.20657 3.2804 8.18114 3.26676C8.1557 3.25313 8.12778 3.24476 8.09904 3.24214C8.07029 3.23953 8.04132 3.24273 8.01384 3.25156C7.98636 3.26038 7.96094 3.27464 7.93909 3.2935L7.91209 3.3215L6.80859 4.1885V0.5H9.29709Z" fill="#BF608F"/>
</g>
<defs>
<clipPath id="clip0_323_3007">
<rect width="12" height="12" fill="white" transform="translate(0.308594 0.5)"/>
</clipPath>
</defs>
</svg>
