<svg width="226" height="183" viewBox="0 0 226 183" fill="none" xmlns="http://www.w3.org/2000/svg">
<path d="M43.46 0.279999L36.08 52.66H36.98C36.98 52.42 37.76 51.58 39.32 50.14C41 48.7 43.46 47.38 46.7 46.18C50.06 44.86 54.14 44.2 58.94 44.2C68.3 44.2 75.8 47.5 81.44 54.1C87.08 60.7 89.9 69.58 89.9 80.74C89.9 91.42 88.04 101.14 84.32 109.9C80.6 118.54 75.32 125.38 68.48 130.42C61.64 135.46 53.66 137.98 44.54 137.98C39.62 137.98 35.48 137.38 32.12 136.18C28.88 134.98 26.36 133.72 24.56 132.4C22.88 130.96 22.04 130.12 22.04 129.88H21.68L16.82 136H0.44L19.34 1.71999L43.46 0.279999ZM26.9 118.72C27.5 119.8 28.76 121 30.68 122.32C32.72 123.64 35.84 124.3 40.04 124.3C47.72 124.3 53.72 120.4 58.04 112.6C62.48 104.8 64.7 92.74 64.7 76.42C64.7 64.18 59.96 58.06 50.48 58.06C47.36 58.06 44.54 58.78 42.02 60.22C39.62 61.54 37.7 63.04 36.26 64.72C34.82 66.28 34.1 67.18 34.1 67.42L26.9 118.72ZM88.1366 166.24C88.6166 166.48 89.6966 166.84 91.3766 167.32C93.1766 167.92 95.0366 168.22 96.9566 168.22C102.477 168.22 107.217 166.06 111.177 161.74C115.257 157.42 120.057 150.04 125.577 139.6L100.557 46H129.357L142.497 109.72L170.037 46H184.797L140.517 137.98C133.197 153.1 126.297 164.38 119.817 171.82C113.457 179.26 106.137 182.98 97.8566 182.98C95.0966 182.98 92.6966 182.74 90.6566 182.26C88.7366 181.9 87.2366 181.48 86.1566 181C85.1966 180.64 84.5966 180.4 84.3566 180.28L88.1366 166.24ZM202.487 50.5C205.607 47.98 209.087 46.72 212.927 46.72C216.767 46.72 219.947 47.98 222.467 50.5C224.387 52.78 225.347 55.6 225.347 58.96C225.347 61.36 224.807 63.7 223.727 65.98C222.767 68.26 221.327 70.24 219.407 71.92C216.167 74.44 212.627 75.7 208.787 75.7C204.947 75.7 201.827 74.44 199.427 71.92C197.387 69.52 196.367 66.7 196.367 63.46C196.367 61.18 196.907 58.9 197.987 56.62C199.067 54.34 200.567 52.3 202.487 50.5ZM193.667 113.68C196.787 111.16 200.267 109.9 204.107 109.9C207.947 109.9 211.127 111.16 213.647 113.68C215.567 115.96 216.527 118.78 216.527 122.14C216.527 124.54 215.987 126.88 214.907 129.16C213.947 131.44 212.507 133.42 210.587 135.1C207.347 137.62 203.807 138.88 199.967 138.88C196.127 138.88 193.007 137.62 190.607 135.1C188.567 132.7 187.547 129.88 187.547 126.64C187.547 124.36 188.087 122.08 189.167 119.8C190.247 117.52 191.747 115.48 193.667 113.68Z" fill="#FCF4F6"/>
</svg>
