<svg width="41" height="36" viewBox="0 0 41 36" fill="none" xmlns="http://www.w3.org/2000/svg">
<path d="M1 1H4.2439L5.63415 6.56098M5.63415 6.56098L10.2683 25.0976H34.3659L39 6.56098H5.63415Z" stroke="black" stroke-width="2" stroke-linecap="round" stroke-linejoin="round"/>
<path d="M10.2688 34.3657C11.8044 34.3657 13.0493 33.1208 13.0493 31.5852C13.0493 30.0496 11.8044 28.8047 10.2688 28.8047C8.73315 28.8047 7.48828 30.0496 7.48828 31.5852C7.48828 33.1208 8.73315 34.3657 10.2688 34.3657Z" stroke="black" stroke-width="2" stroke-linecap="round" stroke-linejoin="round"/>
<path d="M34.3664 34.3657C35.902 34.3657 37.1469 33.1208 37.1469 31.5852C37.1469 30.0496 35.902 28.8047 34.3664 28.8047C32.8308 28.8047 31.5859 30.0496 31.5859 31.5852C31.5859 33.1208 32.8308 34.3657 34.3664 34.3657Z" stroke="black" stroke-width="2" stroke-linecap="round" stroke-linejoin="round"/>
</svg>
