<svg width="36" height="36" viewBox="0 0 36 36" fill="none" xmlns="http://www.w3.org/2000/svg">
<path d="M22.0936 0.0842745C21.1373 -0.260257 20.1417 0.435837 19.8661 1.63115L12.6661 33.1311C12.3905 34.3265 12.9473 35.571 13.9036 35.9155C14.8598 36.2601 15.8555 35.564 16.1311 34.3686L23.3311 2.86865C23.6067 1.67334 23.0498 0.428806 22.0936 0.0842745ZM26.6273 8.52881C25.9242 9.40771 25.9242 10.8351 26.6273 11.714L31.6505 17.9999L26.6217 24.2858C25.9186 25.1647 25.9186 26.5921 26.6217 27.471C27.3248 28.3499 28.4667 28.3499 29.1698 27.471L35.4698 19.596C36.173 18.7171 36.173 17.2897 35.4698 16.4108L29.1698 8.53584C28.4667 7.65693 27.3248 7.65693 26.6217 8.53584L26.6273 8.52881ZM9.37547 8.52881C8.67234 7.6499 7.53047 7.6499 6.82734 8.52881L0.527344 16.4038C-0.175781 17.2827 -0.175781 18.7101 0.527344 19.589L6.82734 27.464C7.53047 28.3429 8.67234 28.3429 9.37547 27.464C10.0786 26.5851 10.0786 25.1577 9.37547 24.2788L4.34672 17.9999L9.37547 11.714C10.0786 10.8351 10.0786 9.40771 9.37547 8.52881Z" fill="#BF608F"/>
</svg>
