<svg width="39" height="28" viewBox="0 0 39 28" fill="none" xmlns="http://www.w3.org/2000/svg">
<path d="M5.125 4.15625C5.125 3.28601 5.4707 2.45141 6.08606 1.83606C6.70141 1.2207 7.53601 0.875 8.40625 0.875C9.27649 0.875 10.1111 1.2207 10.7264 1.83606C11.3418 2.45141 11.6875 3.28601 11.6875 4.15625C11.6875 5.02649 11.3418 5.86109 10.7264 6.47644C10.1111 7.0918 9.27649 7.4375 8.40625 7.4375C7.53601 7.4375 6.70141 7.0918 6.08606 6.47644C5.4707 5.86109 5.125 5.02649 5.125 4.15625ZM4.65625 13.3965C4.07031 14.0527 3.71875 14.9258 3.71875 15.875C3.71875 16.8242 4.07031 17.6973 4.65625 18.3535V13.3965ZM13.1172 10.5078C11.377 12.0488 10.2812 14.3047 10.2812 16.8125C10.2812 18.8223 10.9844 20.668 12.1562 22.1152V23.375C12.1562 24.4121 11.3184 25.25 10.2812 25.25H6.53125C5.49414 25.25 4.65625 24.4121 4.65625 23.375V21.8047C2.44141 20.75 0.90625 18.4941 0.90625 15.875C0.90625 12.248 3.8418 9.3125 7.46875 9.3125H9.34375C10.75 9.3125 12.0508 9.75195 13.1172 10.502V10.5078ZM27.1562 23.375V22.1152C28.3281 20.668 29.0312 18.8223 29.0312 16.8125C29.0312 14.3047 27.9355 12.0488 26.1953 10.502C27.2617 9.75195 28.5625 9.3125 29.9688 9.3125H31.8438C35.4707 9.3125 38.4062 12.248 38.4062 15.875C38.4062 18.4941 36.8711 20.75 34.6562 21.8047V23.375C34.6562 24.4121 33.8184 25.25 32.7812 25.25H29.0312C27.9941 25.25 27.1562 24.4121 27.1562 23.375ZM27.625 4.15625C27.625 3.28601 27.9707 2.45141 28.5861 1.83606C29.2014 1.2207 30.036 0.875 30.9062 0.875C31.7765 0.875 32.6111 1.2207 33.2264 1.83606C33.8418 2.45141 34.1875 3.28601 34.1875 4.15625C34.1875 5.02649 33.8418 5.86109 33.2264 6.47644C32.6111 7.0918 31.7765 7.4375 30.9062 7.4375C30.036 7.4375 29.2014 7.0918 28.5861 6.47644C27.9707 5.86109 27.625 5.02649 27.625 4.15625ZM34.6562 13.3965V18.3594C35.2422 17.6973 35.5938 16.8301 35.5938 15.8809C35.5938 14.9316 35.2422 14.0586 34.6562 13.4023V13.3965ZM19.6562 0.875C20.6508 0.875 21.6046 1.27009 22.3079 1.97335C23.0112 2.67661 23.4062 3.63044 23.4062 4.625C23.4062 5.61956 23.0112 6.57339 22.3079 7.27665C21.6046 7.97991 20.6508 8.375 19.6562 8.375C18.6617 8.375 17.7079 7.97991 17.0046 7.27665C16.3013 6.57339 15.9062 5.61956 15.9062 4.625C15.9062 3.63044 16.3013 2.67661 17.0046 1.97335C17.7079 1.27009 18.6617 0.875 19.6562 0.875ZM14.9688 16.8125C14.9688 17.7617 15.3203 18.6289 15.9062 19.291V14.334C15.3203 14.9961 14.9688 15.8633 14.9688 16.8125ZM23.4062 14.334V19.2969C23.9922 18.6348 24.3438 17.7676 24.3438 16.8184C24.3438 15.8691 23.9922 14.9961 23.4062 14.3398V14.334ZM27.1562 16.8125C27.1562 19.4316 25.6211 21.6875 23.4062 22.7422V25.25C23.4062 26.2871 22.5684 27.125 21.5312 27.125H17.7812C16.7441 27.125 15.9062 26.2871 15.9062 25.25V22.7422C13.6914 21.6875 12.1562 19.4316 12.1562 16.8125C12.1562 13.1855 15.0918 10.25 18.7188 10.25H20.5938C24.2207 10.25 27.1562 13.1855 27.1562 16.8125Z" fill="#BF608F"/>
</svg>
