<svg width="262" height="249" viewBox="0 0 262 249" fill="none" xmlns="http://www.w3.org/2000/svg">
<path d="M137.5 0C206.259 0 262 55.7406 262 124.5C262 193.259 206.259 249 137.5 249C68.7406 249 13 193.259 13 124.5C13 55.7406 68.7406 0 137.5 0Z" fill="#FEDEEE"/>
<path d="M137.5 0C206.259 0 262 55.7406 262 124.5C262 193.259 206.259 249 137.5 249C68.7406 249 13 193.259 13 124.5C13 55.7406 68.7406 0 137.5 0Z" stroke="#E5E7EB"/>
<path d="M138 185C154.178 185 169.694 178.573 181.134 167.134C192.573 155.694 199 140.178 199 124C199 107.822 192.573 92.3062 181.134 80.8665C169.694 69.4268 154.178 63 138 63C121.822 63 106.306 69.4268 94.8665 80.8665C83.4268 92.3062 77 107.822 77 124C77 140.178 83.4268 155.694 94.8665 167.134C106.306 178.573 121.822 185 138 185ZM164.926 112.801L134.426 143.301C132.186 145.541 128.564 145.541 126.348 143.301L111.098 128.051C108.858 125.811 108.858 122.189 111.098 119.973C113.338 117.757 116.96 117.733 119.176 119.973L130.375 131.172L156.824 104.699C159.064 102.459 162.686 102.459 164.902 104.699C167.118 106.939 167.142 110.561 164.902 112.777L164.926 112.801Z" fill="#EDBED5"/>
</svg>
