<svg width="36" height="32" viewBox="0 0 36 32" fill="none" xmlns="http://www.w3.org/2000/svg">
<path d="M4.5 2.5C4.5 1.25547 3.49453 0.25 2.25 0.25C1.00547 0.25 0 1.25547 0 2.5V26.125C0 29.2328 2.51719 31.75 5.625 31.75H33.75C34.9945 31.75 36 30.7445 36 29.5C36 28.2555 34.9945 27.25 33.75 27.25H5.625C5.00625 27.25 4.5 26.7437 4.5 26.125V2.5ZM33.0891 8.58906C33.968 7.71016 33.968 6.28281 33.0891 5.40391C32.2102 4.525 30.7828 4.525 29.9039 5.40391L22.5 12.8148L18.4641 8.77891C17.5852 7.9 16.1578 7.9 15.2789 8.77891L7.40391 16.6539C6.525 17.5328 6.525 18.9602 7.40391 19.8391C8.28281 20.718 9.71016 20.718 10.5891 19.8391L16.875 13.5602L20.9109 17.5961C21.7898 18.475 23.2172 18.475 24.0961 17.5961L33.0961 8.59609L33.0891 8.58906Z" fill="#BF608F"/>
</svg>
