<svg width="39" height="28" viewBox="0 0 39 28" fill="none" xmlns="http://www.w3.org/2000/svg">
<path d="M19.6728 0.875C19.1982 0.875 18.7294 0.957031 18.2841 1.11523L1.84856 7.05078C1.29192 7.25586 0.922777 7.7832 0.922777 8.375C0.922777 8.9668 1.29192 9.49414 1.84856 9.69922L5.24114 10.9238C4.2802 12.4355 3.73528 14.2227 3.73528 16.1035V17.75C3.73528 19.4141 3.10246 21.1309 2.42864 22.4844C2.04778 23.2461 1.61418 23.9961 1.11028 24.6875C0.922777 24.9395 0.870043 25.2676 0.975511 25.5664C1.08098 25.8652 1.32707 26.0879 1.63176 26.1641L5.38176 27.1016C5.62785 27.166 5.89153 27.1191 6.10832 26.9844C6.32512 26.8496 6.47746 26.627 6.52434 26.375C7.02825 23.8672 6.77629 21.6172 6.40129 20.0059C6.21379 19.1738 5.96184 18.3242 5.61028 17.5449V16.1035C5.61028 14.334 6.20793 12.6641 7.24504 11.3281C8.0009 10.4199 8.97942 9.6875 10.1279 9.23633L19.3271 5.62109C19.8075 5.43359 20.3525 5.66797 20.54 6.14844C20.7275 6.62891 20.4931 7.17383 20.0126 7.36133L10.8134 10.9766C10.0868 11.2637 9.44817 11.7031 8.92668 12.2422L18.2782 15.6172C18.7236 15.7754 19.1923 15.8574 19.6669 15.8574C20.1415 15.8574 20.6103 15.7754 21.0556 15.6172L37.497 9.69922C38.0536 9.5 38.4228 8.9668 38.4228 8.375C38.4228 7.7832 38.0536 7.25586 37.497 7.05078L21.0614 1.11523C20.6161 0.957031 20.1474 0.875 19.6728 0.875ZM8.42278 22.9062C8.42278 24.9746 13.4618 27.125 19.6728 27.125C25.8837 27.125 30.9228 24.9746 30.9228 22.9062L30.0263 14.3867L21.6943 17.3984C21.0439 17.6328 20.3583 17.75 19.6728 17.75C18.9872 17.75 18.2958 17.6328 17.6513 17.3984L9.31926 14.3867L8.42278 22.9062Z" fill="#BF608F"/>
</svg>
