<svg width="31" height="27" viewBox="0 0 31 27" fill="none" xmlns="http://www.w3.org/2000/svg">
<path d="M14.0332 25.4863L3.44531 15.6015C3.19922 15.373 2.96484 15.1269 2.74805 14.8749H7.8457C9.16992 14.8749 10.3652 14.0781 10.875 12.8535L11.4902 11.3769L14.3789 17.7929C14.6016 18.291 15.0879 18.6132 15.6328 18.6191C16.1777 18.6249 16.6758 18.3261 16.9219 17.8398L19.4062 12.8652L19.5059 13.0644C20.0625 14.1777 21.1992 14.8808 22.4414 14.8808H28.5645C28.3477 15.1328 28.1133 15.3789 27.8672 15.6074L17.2793 25.4863C16.8398 25.8964 16.2598 26.1249 15.6562 26.1249C15.0527 26.1249 14.4727 25.8964 14.0332 25.4863ZM30.1699 12.0624H22.4355C22.2598 12.0624 22.0957 11.9628 22.0137 11.8046L20.6543 9.09174C20.4141 8.61714 19.9277 8.31245 19.3945 8.31245C18.8613 8.31245 18.375 8.61128 18.1348 9.09174L15.709 13.9433L12.7207 7.26948C12.4922 6.75971 11.9766 6.43159 11.4199 6.44331C10.8633 6.45503 10.3594 6.78901 10.1426 7.31049L8.2793 11.7812C8.20898 11.957 8.0332 12.0683 7.8457 12.0683H1.59375C1.44141 12.0683 1.30078 12.0917 1.16602 12.1328C0.832031 11.1953 0.65625 10.1992 0.65625 9.18549V8.84565C0.65625 4.74995 3.61523 1.25776 7.65234 0.583932C10.3242 0.138619 13.043 1.01167 14.9531 2.92182L15.6562 3.62495L16.3594 2.92182C18.2695 1.01167 20.9883 0.138619 23.6602 0.583932C27.6973 1.25776 30.6562 4.74995 30.6562 8.84565V9.18549C30.6562 10.1757 30.4922 11.1484 30.1699 12.0624Z" fill="#BF608F"/>
</svg>
