<svg width="21" height="30" viewBox="0 0 21 30" fill="none" xmlns="http://www.w3.org/2000/svg">
<path d="M15.3438 22.5C15.9062 20.6309 17.0723 19.0371 18.2266 17.4492C18.5312 17.0332 18.8359 16.6172 19.1289 16.1953C20.2891 14.5254 20.9688 12.5039 20.9688 10.3184C20.9688 4.61719 16.3516 0 10.6562 0C4.96094 0 0.34375 4.61719 0.34375 10.3125C0.34375 12.498 1.02344 14.5254 2.18359 16.1895C2.47656 16.6113 2.78125 17.0273 3.08594 17.4434C4.24609 19.0312 5.41211 20.6309 5.96875 22.4941H15.3438V22.5ZM10.6562 30C13.2461 30 15.3438 27.9023 15.3438 25.3125V24.375H5.96875V25.3125C5.96875 27.9023 8.06641 30 10.6562 30ZM5.96875 10.3125C5.96875 10.8281 5.54688 11.25 5.03125 11.25C4.51562 11.25 4.09375 10.8281 4.09375 10.3125C4.09375 6.68555 7.0293 3.75 10.6562 3.75C11.1719 3.75 11.5938 4.17188 11.5938 4.6875C11.5938 5.20312 11.1719 5.625 10.6562 5.625C8.06641 5.625 5.96875 7.72266 5.96875 10.3125Z" fill="#BF608F"/>
</svg>
