<svg width="61" height="44" viewBox="0 0 61 44" fill="none" xmlns="http://www.w3.org/2000/svg">
<g filter="url(#filter0_d_223_1377)">
<path fill-rule="evenodd" clip-rule="evenodd" d="M23.139 16.7325C25.5934 12.7062 33.5333 11.3262 37.6281 16.7325C38.3704 17.7128 39.0918 19.3761 39.7128 21.5344C41.5425 20.5176 43.4706 19.6474 45.3772 19.2087C48.206 18.558 51.1204 18.8364 53.5427 21.1028L53.7554 21.3076C58.0843 25.5711 58.08 32.3206 53.7519 36.5829L53.5392 36.7868C51.2006 38.975 48.2176 39.204 45.4378 38.6809C42.1683 38.0654 36.7602 33.769 36.2223 31.6791C38.9468 34.2031 42.9593 35.7061 45.8729 36.2546C48.2724 36.7062 50.3564 36.4233 51.9141 34.966L52.0785 34.8079C55.4268 31.5131 55.4289 26.3755 52.0821 23.0818L51.9176 22.9241C50.2503 21.3641 48.2288 21.0813 45.9053 21.6157C43.5363 22.1609 40.9932 23.5328 38.5342 25.0976L32.6203 29.0191C28.4481 32.1796 21.8215 37.1948 16.4824 38.5466L15.9328 38.6773C12.9946 39.33 9.93297 39.1263 7.45725 36.8098C2.84461 32.4929 2.84939 25.4413 7.46076 21.1257L7.67612 20.9303C9.92261 18.9597 12.7441 18.4723 15.4648 18.8925C17.6076 19.2236 19.5587 20.0275 21.377 21.0489C21.8892 19.0685 22.3352 18.051 23.139 16.7325ZM30.3833 16.096C28.1785 16.0961 24.9681 16.7201 23.7688 22.7741C22.5089 29.1341 19.1492 30.7243 17.4693 31.6786C18.8287 30.4775 19.9891 27.5441 20.6191 24.3641C20.6796 24.079 20.738 23.8067 20.7945 23.5466C18.965 22.4529 17.1066 21.6416 15.1051 21.3323C12.8929 20.9907 10.8321 21.409 9.2385 22.8082L9.08586 22.947C5.51853 26.2857 5.51631 31.6514 9.08235 34.9889C10.7647 36.5629 12.9059 36.8255 15.4218 36.2667L15.9135 36.1495C20.4528 35.0003 24.3659 32.0644 28.4095 29.003L28.4077 29.0012L28.4104 29.0025L30.5035 27.4808L30.5057 27.4826L36.9745 23.1923C35.7146 18.168 33.828 16.096 30.3833 16.096Z" fill="#BF608F"/>
<path d="M30.5004 3C32.8288 3 34.7164 4.933 34.7165 7.31729C34.7165 9.70161 32.8288 11.6346 30.5004 11.6346C28.172 11.6346 26.2843 9.70161 26.2843 7.31729C26.2844 4.933 28.172 3 30.5004 3Z" fill="#BF608F"/>
</g>
<defs>
<filter id="filter0_d_223_1377" x="0" y="0" width="61" height="44" filterUnits="userSpaceOnUse" color-interpolation-filters="sRGB">
<feFlood flood-opacity="0" result="BackgroundImageFix"/>
<feColorMatrix in="SourceAlpha" type="matrix" values="0 0 0 0 0 0 0 0 0 0 0 0 0 0 0 0 0 0 127 0" result="hardAlpha"/>
<feOffset dy="1"/>
<feGaussianBlur stdDeviation="2"/>
<feComposite in2="hardAlpha" operator="out"/>
<feColorMatrix type="matrix" values="0 0 0 0 0 0 0 0 0 0 0 0 0 0 0 0 0 0 0.25 0"/>
<feBlend mode="normal" in2="BackgroundImageFix" result="effect1_dropShadow_223_1377"/>
<feBlend mode="normal" in="SourceGraphic" in2="effect1_dropShadow_223_1377" result="shape"/>
</filter>
</defs>
</svg>
