<svg width="47" height="31" viewBox="0 0 47 31" fill="none" xmlns="http://www.w3.org/2000/svg">
<path d="M30.6405 30.7952C27.5692 30.7957 24.5667 29.8931 22.0128 28.2015C19.4588 26.51 17.4681 24.1055 16.2923 21.2921C15.1166 18.4788 14.8086 15.3829 15.4073 12.3959C16.006 9.409 17.4846 6.66519 19.656 4.51148C21.8275 2.35776 24.5942 0.890878 27.6064 0.296314C30.6186 -0.298249 33.741 0.00621349 36.5787 1.1712C39.4164 2.33619 41.842 4.30939 43.5487 6.84126C45.2554 9.37313 46.1666 12.35 46.167 15.3953V15.3976C46.1628 19.4796 44.5256 23.3932 41.6148 26.2799C38.7041 29.1665 34.7573 30.7904 30.6405 30.7952Z" fill="#F79E1B"/>
<path d="M15.5288 30.7952C12.4575 30.7952 9.45518 29.8922 6.90148 28.2002C4.34778 26.5083 2.35741 24.1036 1.18207 21.29C0.00672842 18.4765 -0.300794 15.3805 0.298389 12.3937C0.897572 9.40684 2.37655 6.66325 4.5483 4.50986C6.72004 2.35647 9.48702 0.889987 12.4993 0.295867C15.5116 -0.298252 18.6339 0.00667197 21.4715 1.17208C24.309 2.33749 26.7343 4.31104 28.4406 6.84316C30.1469 9.37528 31.0577 12.3523 31.0577 15.3976C31.0534 19.48 29.4159 23.394 26.5047 26.2807C23.5934 29.1674 19.646 30.791 15.5288 30.7952Z" fill="#EB001B"/>
</svg>
