<svg width="60" height="16" viewBox="0 0 60 16" fill="none" xmlns="http://www.w3.org/2000/svg">
<path d="M10.2351 0.80192C9.48616 0.286604 8.50889 0.0283203 7.30327 0.0283203H2.63575C2.26615 0.0283203 2.06196 0.213331 2.02317 0.582906L0.127045 12.4961C0.10734 12.6131 0.136586 12.7201 0.214518 12.8174C0.292004 12.9148 0.389463 12.9633 0.506182 12.9633H2.72322C3.11208 12.9633 3.32581 12.7787 3.36504 12.4086L3.89006 9.19693C3.90923 9.04128 3.97762 8.91472 4.09434 8.81727C4.21097 8.71999 4.35684 8.65635 4.53188 8.62717C4.70691 8.59825 4.87196 8.5837 5.02782 8.5837C5.18324 8.5837 5.36791 8.59352 5.58217 8.61289C5.79591 8.63234 5.93215 8.6418 5.99056 8.6418C7.66297 8.6418 8.97568 8.17013 9.92878 7.2258C10.8814 6.28182 11.3583 4.97283 11.3583 3.29854C11.3583 2.15019 10.9836 1.31804 10.2351 0.80192ZM7.82846 4.37897C7.73091 5.06038 7.47839 5.50787 7.07001 5.72206C6.66154 5.93652 6.07812 6.04309 5.31976 6.04309L4.35702 6.07236L4.85306 2.94806C4.89176 2.73414 5.0181 2.62704 5.23219 2.62704H5.78663C6.56417 2.62704 7.1285 2.73922 7.47857 2.9627C7.82846 3.18671 7.94518 3.65901 7.82846 4.37897Z" fill="#003087"/>
<path d="M59.4907 0.0283203H57.3321C57.1177 0.0283203 56.9914 0.135418 56.9529 0.349523L55.0566 12.4961L55.0273 12.5544C55.0273 12.6522 55.0663 12.7443 55.1442 12.8319C55.2216 12.9194 55.3193 12.9632 55.4358 12.9632H57.3614C57.7303 12.9632 57.9346 12.7786 57.974 12.4085L59.8702 0.466081V0.437075C59.8701 0.164602 59.7433 0.0283203 59.4907 0.0283203Z" fill="#009CDE"/>
<path d="M33.4109 4.72907C33.4109 4.63197 33.3718 4.53933 33.2945 4.45186C33.2164 4.36431 33.1288 4.32031 33.0319 4.32031H30.7856C30.5712 4.32031 30.3963 4.41813 30.2605 4.61224L27.1683 9.16745L25.8848 4.78761C25.7872 4.47632 25.5733 4.32031 25.243 4.32031H23.0548C22.9574 4.32031 22.8698 4.36422 22.7925 4.45186C22.7145 4.53933 22.6758 4.63205 22.6758 4.72907C22.6758 4.76834 22.8654 5.34229 23.2446 6.45182C23.6237 7.56152 24.0322 8.75869 24.4698 10.0436C24.9074 11.3281 25.1357 12.0098 25.1553 12.0872C23.5605 14.2675 22.7633 15.4355 22.7633 15.591C22.7633 15.8443 22.8896 15.9706 23.1425 15.9706H25.3888C25.6027 15.9706 25.7776 15.8735 25.9139 15.6788L33.3528 4.93345C33.3915 4.89471 33.4109 4.82688 33.4109 4.72907Z" fill="#003087"/>
<path d="M54.3279 4.32068H52.1107C51.8383 4.32068 51.6734 4.64188 51.6151 5.28429C51.1089 4.50605 50.1857 4.11621 48.8435 4.11621C47.4433 4.11621 46.2518 4.64188 45.27 5.69304C44.2877 6.74429 43.7969 7.98055 43.7969 9.40138C43.7969 10.5501 44.1322 11.4649 44.8031 12.1459C45.4741 12.8277 46.3735 13.1679 47.5018 13.1679C48.0656 13.1679 48.6393 13.0509 49.2228 12.8175C49.8063 12.584 50.2629 12.2727 50.594 11.8832C50.594 11.9027 50.5743 11.9902 50.5356 12.1458C50.4964 12.3018 50.4772 12.4188 50.4772 12.4962C50.4772 12.8081 50.6033 12.9633 50.8566 12.9633H52.8696C53.2386 12.9633 53.4528 12.7788 53.511 12.4087L54.7072 4.78789C54.7264 4.67106 54.6972 4.56415 54.6197 4.46669C54.5416 4.3695 54.4446 4.32068 54.3279 4.32068ZM50.521 10.0729C50.0251 10.5595 49.4271 10.8027 48.727 10.8027C48.1627 10.8027 47.7061 10.6473 47.3559 10.3356C47.0057 10.0247 46.8307 9.59638 46.8307 9.0509C46.8307 8.33112 47.0737 7.72245 47.5601 7.22605C48.0458 6.72965 48.6491 6.48146 49.3688 6.48146C49.9128 6.48146 50.3651 6.6421 50.7252 6.96322C51.0847 7.28442 51.265 7.72744 51.265 8.29194C51.2649 8.99262 51.0169 9.58648 50.521 10.0729Z" fill="#009CDE"/>
<path d="M21.1875 4.32068H18.9704C18.6977 4.32068 18.5328 4.64188 18.4744 5.28429C17.9493 4.50605 17.0254 4.11621 15.703 4.11621C14.3027 4.11621 13.1114 4.64188 12.1294 5.69304C11.1471 6.74429 10.6562 7.98055 10.6562 9.40138C10.6562 10.5501 10.9918 11.4649 11.6628 12.1459C12.3337 12.8277 13.233 13.1679 14.3611 13.1679C14.9054 13.1679 15.4697 13.0509 16.0531 12.8175C16.6365 12.584 17.1033 12.2727 17.4533 11.8832C17.3753 12.1167 17.3366 12.3212 17.3366 12.4962C17.3366 12.8081 17.463 12.9633 17.7158 12.9633H19.7287C20.0979 12.9633 20.3121 12.7788 20.3705 12.4087L21.5665 4.78789C21.5857 4.67106 21.5565 4.56415 21.479 4.46669C21.4012 4.3695 21.3041 4.32068 21.1875 4.32068ZM17.3805 10.0873C16.8845 10.5648 16.2764 10.8027 15.5573 10.8027C14.993 10.8027 14.5408 10.6473 14.2007 10.3356C13.8602 10.0247 13.6901 9.59638 13.6901 9.0509C13.6901 8.33112 13.9331 7.72245 14.4195 7.22605C14.9054 6.72965 15.5083 6.48146 16.2282 6.48146C16.7725 6.48146 17.2246 6.6421 17.5848 6.96322C17.9443 7.28442 18.1244 7.72744 18.1244 8.29194C18.1244 9.01217 17.8764 9.61093 17.3805 10.0873Z" fill="#003087"/>
<path d="M43.3757 0.80192C42.6269 0.286604 41.6498 0.0283203 40.444 0.0283203H35.8056C35.4164 0.0283203 35.2024 0.213331 35.1638 0.582906L33.2677 12.496C33.248 12.613 33.2771 12.72 33.3552 12.8173C33.4324 12.9147 33.5301 12.9632 33.6468 12.9632H36.0388C36.2721 12.9632 36.4277 12.8368 36.5056 12.5837L37.0308 9.19684C37.05 9.04119 37.1182 8.91463 37.235 8.81718C37.3517 8.7199 37.4974 8.65626 37.6726 8.62708C37.8475 8.59816 38.0126 8.58361 38.1685 8.58361C38.324 8.58361 38.5086 8.59343 38.7226 8.6128C38.9365 8.63225 39.0731 8.64171 39.131 8.64171C40.8037 8.64171 42.1162 8.17004 43.0693 7.22571C44.0222 6.28173 44.4988 4.97274 44.4988 3.29845C44.4988 2.15019 44.1243 1.31804 43.3757 0.80192ZM40.3856 5.60524C39.9577 5.89717 39.3159 6.04309 38.4603 6.04309L37.5267 6.07236L38.0228 2.94806C38.0613 2.73414 38.1876 2.62704 38.4019 2.62704H38.9268C39.3546 2.62704 39.6949 2.64649 39.9481 2.68532C40.2006 2.72459 40.444 2.84587 40.6773 3.05025C40.9109 3.25472 41.0274 3.55164 41.0274 3.94094C41.0274 4.75845 40.8132 5.31313 40.3856 5.60524Z" fill="#009CDE"/>
</svg>
