<svg width="36" height="36" viewBox="0 0 36 36" fill="none" xmlns="http://www.w3.org/2000/svg">
<path d="M25.9017 1.28672L21.9853 5.21016L30.7884 14.0133L34.7048 10.0969C36.2446 8.55703 36.2446 6.06797 34.7048 4.52813L31.4704 1.28672C29.9306 -0.253125 27.4415 -0.253125 25.9017 1.28672ZM20.2485 6.65156L19.6017 6.84844L9.46964 9.88594C8.07042 10.3078 6.95948 11.3766 6.49542 12.7688L0.265729 31.3453C-0.00145856 32.1398 0.195416 33.0258 0.77901 33.6234L11.579 22.8305C11.3681 22.3875 11.2485 21.8953 11.2485 21.375C11.2485 19.5117 12.7603 18 14.6235 18C16.4868 18 17.9985 19.5117 17.9985 21.375C17.9985 23.2383 16.4868 24.75 14.6235 24.75C14.1032 24.75 13.611 24.6305 13.1681 24.4195L2.36807 35.2195C2.97276 35.8031 3.85167 36.007 4.6462 35.7328L23.2298 29.5031C24.6149 29.0391 25.6907 27.9281 26.1126 26.5289L29.1501 16.3969L29.347 15.75L20.2485 6.65156Z" fill="#BF608F"/>
</svg>
