<svg width="34" height="33" viewBox="0 0 34 33" fill="none" xmlns="http://www.w3.org/2000/svg">
<path d="M8.016 32.664C6.252 32.664 4.71667 32.076 3.41 30.9C3.14867 30.704 2.822 30.3447 2.43 29.822C1.254 27.9927 0.666 25.7387 0.666 23.06C0.666 19.2707 1.71133 15.2527 3.802 11.006C5.958 6.694 8.57133 3.264 11.642 0.715998L15.072 4.342C12.8507 6.302 11.0213 8.654 9.584 11.398C8.212 14.0767 7.46067 16.6573 7.33 19.14H8.016C9.84533 19.14 11.4133 19.6953 12.72 20.806C14.0267 22.3087 14.68 24.0073 14.68 25.902C14.68 27.7967 14.0267 29.4627 12.72 30.9C11.4133 32.076 9.84533 32.664 8.016 32.664ZM26.342 32.664C24.578 32.664 23.0427 32.076 21.736 30.9C21.4747 30.704 21.148 30.3447 20.756 29.822C19.58 27.9273 18.992 25.6733 18.992 23.06C18.992 19.2707 20.0373 15.2527 22.128 11.006C24.284 6.694 26.8973 3.264 29.968 0.715998L33.398 4.342C31.1767 6.302 29.3473 8.654 27.91 11.398C26.538 14.0767 25.7867 16.6573 25.656 19.14H26.342C28.1713 19.14 29.7393 19.6953 31.046 20.806C32.3527 22.3087 33.006 24.0073 33.006 25.902C33.006 27.7967 32.3527 29.4627 31.046 30.9C29.8047 32.076 28.2367 32.664 26.342 32.664Z" fill="#BF608F"/>
</svg>
