<svg width="36" height="36" viewBox="0 0 36 36" fill="none" xmlns="http://www.w3.org/2000/svg">
<path d="M16.3477 0.36582C17.3953 -0.119336 18.6047 -0.119336 19.6523 0.36582L35.0227 7.46738C35.6203 7.7416 36 8.33926 36 9.0002C36 9.66113 35.6203 10.2588 35.0227 10.533L19.6523 17.6346C18.6047 18.1197 17.3953 18.1197 16.3477 17.6346L0.977344 10.533C0.379688 10.2518 0 9.6541 0 9.0002C0 8.34629 0.379688 7.7416 0.977344 7.46738L16.3477 0.36582ZM31.282 14.7377L35.0227 16.4674C35.6203 16.7416 36 17.3393 36 18.0002C36 18.6611 35.6203 19.2588 35.0227 19.533L19.6523 26.6346C18.6047 27.1197 17.3953 27.1197 16.3477 26.6346L0.977344 19.533C0.379688 19.2518 0 18.6541 0 18.0002C0 17.3463 0.379688 16.7416 0.977344 16.4674L4.71797 14.7377L15.4055 19.6736C17.0508 20.433 18.9492 20.433 20.5945 19.6736L31.282 14.7377ZM20.5945 28.6736L31.282 23.7377L35.0227 25.4674C35.6203 25.7416 36 26.3393 36 27.0002C36 27.6611 35.6203 28.2588 35.0227 28.533L19.6523 35.6346C18.6047 36.1197 17.3953 36.1197 16.3477 35.6346L0.977344 28.533C0.379688 28.2518 0 27.6541 0 27.0002C0 26.3463 0.379688 25.7416 0.977344 25.4674L4.71797 23.7377L15.4055 28.6736C17.0508 29.433 18.9492 29.433 20.5945 28.6736Z" fill="#BF608F"/>
</svg>
