<svg width="60" height="47" viewBox="0 0 60 47" fill="none" xmlns="http://www.w3.org/2000/svg">
<path d="M13.775 0C15.731 0 17.6068 0.773714 18.9899 2.15093C20.373 3.52815 21.15 5.39607 21.15 7.34375C21.15 9.29143 20.373 11.1593 18.9899 12.5366C17.6068 13.9138 15.731 14.6875 13.775 14.6875C11.819 14.6875 9.94317 13.9138 8.56009 12.5366C7.17701 11.1593 6.4 9.29143 6.4 7.34375C6.4 5.39607 7.17701 3.52815 8.56009 2.15093C9.94317 0.773714 11.819 0 13.775 0ZM47.7 0C49.656 0 51.5318 0.773714 52.9149 2.15093C54.298 3.52815 55.075 5.39607 55.075 7.34375C55.075 9.29143 54.298 11.1593 52.9149 12.5366C51.5318 13.9138 49.656 14.6875 47.7 14.6875C45.744 14.6875 43.8682 13.9138 42.4851 12.5366C41.102 11.1593 40.325 9.29143 40.325 7.34375C40.325 5.39607 41.102 3.52815 42.4851 2.15093C43.8682 0.773714 45.744 0 47.7 0ZM0.5 27.4197C0.5 22.0129 4.90656 17.625 10.3364 17.625H14.2728C15.7386 17.625 17.1306 17.9463 18.3844 18.5154C18.2645 19.1764 18.2092 19.8648 18.2092 20.5625C18.2092 24.0691 19.758 27.2178 22.2009 29.375C22.1825 29.375 22.1641 29.375 22.1364 29.375H2.46359C1.385 29.375 0.5 28.4938 0.5 27.4197ZM37.8636 29.375C37.8452 29.375 37.8267 29.375 37.7991 29.375C40.2513 27.2178 41.7908 24.0691 41.7908 20.5625C41.7908 19.8648 41.7262 19.1855 41.6156 18.5154C42.8694 17.9371 44.2614 17.625 45.7272 17.625H49.6636C55.0934 17.625 59.5 22.0129 59.5 27.4197C59.5 28.5029 58.615 29.375 57.5364 29.375H37.8636ZM21.15 20.5625C21.15 18.2253 22.0824 15.9838 23.7421 14.3311C25.4018 12.6785 27.6528 11.75 30 11.75C32.3472 11.75 34.5982 12.6785 36.2579 14.3311C37.9176 15.9838 38.85 18.2253 38.85 20.5625C38.85 22.8997 37.9176 25.1412 36.2579 26.7939C34.5982 28.4465 32.3472 29.375 30 29.375C27.6528 29.375 25.4018 28.4465 23.7421 26.7939C22.0824 25.1412 21.15 22.8997 21.15 20.5625ZM12.3 44.549C12.3 37.7928 17.8036 32.3125 24.5886 32.3125H35.4114C42.1964 32.3125 47.7 37.7928 47.7 44.549C47.7 45.8984 46.603 47 45.2386 47H14.7614C13.4062 47 12.3 45.9076 12.3 44.549Z" fill="#BF608F"/>
</svg>
