<svg width="56" height="16" viewBox="0 0 56 16" fill="none" xmlns="http://www.w3.org/2000/svg">
<path d="M19.6797 15.4452L22.4971 0.308594H27.0034L24.184 15.4452H19.6797Z" fill="#0E4595"/>
<path d="M40.4674 0.635733C39.5747 0.329078 38.1757 0 36.4286 0C31.9757 0 28.8392 2.05295 28.8124 4.99524C28.7874 7.17021 31.0517 8.38353 32.761 9.10756C34.5152 9.84961 35.1048 10.3227 35.0964 10.9851C35.0852 11.9998 33.6956 12.4632 32.4003 12.4632C30.5967 12.4632 29.6385 12.2338 28.1585 11.6688L27.5777 11.4282L26.9453 14.8166C27.9979 15.2393 29.9441 15.6052 31.9651 15.6243C36.7022 15.6243 39.7774 13.5947 39.8124 10.4527C39.8292 8.73078 38.6286 7.42049 36.0287 6.34017C34.4536 5.63995 33.489 5.1727 33.4992 4.46366C33.4992 3.8345 34.3157 3.16173 36.08 3.16173C37.5535 3.14078 38.6211 3.43498 39.4528 3.74164L39.8566 3.91631L40.4674 0.635733Z" fill="#0E4595"/>
<path d="M52.0617 0.308594H48.5796C47.5009 0.308594 46.6936 0.578134 46.2199 1.56382L39.5273 15.4354H44.2594C44.2594 15.4354 45.033 13.5703 45.208 13.1607C45.7252 13.1607 50.3222 13.1672 50.9793 13.1672C51.1141 13.6972 51.5276 15.4354 51.5276 15.4354H55.7092L52.0617 0.308594ZM46.5369 10.0826C46.9097 9.21048 48.3324 5.85127 48.3324 5.85127C48.3059 5.89155 48.7024 4.97491 48.9299 4.40661L49.2345 5.71163C49.2345 5.71163 50.0974 9.32476 50.2777 10.0824H46.5369V10.0826Z" fill="#0E4595"/>
<path d="M0.0575679 0.308594L0 0.623465C1.7814 1.01827 3.37245 1.58968 4.76544 2.30051L8.76401 15.4209L13.5319 15.4161L20.6265 0.308594H15.8526L11.4408 10.6306L10.9709 8.53286C10.9489 8.46804 10.9249 8.40312 10.9005 8.33804L9.36674 1.5865C9.09404 0.628033 8.3029 0.341996 7.32416 0.308594H0.0575679Z" fill="#0E4595"/>
</svg>
