<svg width="39" height="30" viewBox="0 0 39 30" fill="none" xmlns="http://www.w3.org/2000/svg">
<path d="M13.6974 0.498047C14.4181 -0.164062 15.5255 -0.164062 16.2404 0.498047L28.4279 11.748C28.8205 12.1113 29.0314 12.6152 29.0314 13.125H20.5939C19.4747 13.125 18.4669 13.6172 17.7814 14.3965V12.1875C17.7814 11.6719 17.3595 11.25 16.8439 11.25H13.0939C12.5783 11.25 12.1564 11.6719 12.1564 12.1875V15.9375C12.1564 16.4531 12.5783 16.875 13.0939 16.875H16.8439V24.375H7.46889C5.91615 24.375 4.65639 23.1152 4.65639 21.5625V15H2.78139C2.00795 15 1.31654 14.5254 1.03529 13.8105C0.754042 13.0957 0.941542 12.2754 1.5099 11.748L13.6974 0.498047ZM21.5314 17.8125V26.25H32.7814V17.8125H21.5314ZM18.7189 16.875C18.7189 15.8379 19.5568 15 20.5939 15H33.7189C34.756 15 35.5939 15.8379 35.5939 16.875V26.25H37.4689C37.9845 26.25 38.4064 26.6719 38.4064 27.1875C38.4064 28.7402 37.1466 30 35.5939 30H32.7814H21.5314H18.7189C17.1662 30 15.9064 28.7402 15.9064 27.1875C15.9064 26.6719 16.3283 26.25 16.8439 26.25H18.7189V16.875Z" fill="#BF608F"/>
</svg>
