<svg width="31" height="30" viewBox="0 0 31 30" fill="none" xmlns="http://www.w3.org/2000/svg">
<path d="M4.05273 11.3086L4.60352 12.2695C5.08984 13.1191 5.88672 13.7461 6.83008 14.0156L10.2227 14.9824C11.2305 15.2695 11.9219 16.1895 11.9219 17.2383V19.5762C11.9219 20.2207 12.2852 20.8066 12.8594 21.0938C13.4336 21.3809 13.7969 21.9668 13.7969 22.6113V24.8965C13.7969 25.8105 14.6699 26.4727 15.5488 26.2207C16.4922 25.9512 17.2246 25.1953 17.4648 24.2402L17.6289 23.584C17.875 22.5938 18.5195 21.7441 19.4043 21.2402L19.8789 20.9707C20.7578 20.4727 21.2969 19.5352 21.2969 18.5273V18.041C21.2969 17.2969 20.998 16.582 20.4707 16.0547L20.2422 15.8262C19.7148 15.2988 19 15 18.2559 15H15.7305C15.0801 15 14.4355 14.8301 13.8672 14.5078L11.8457 13.3535C11.5938 13.207 11.4004 12.9727 11.3066 12.6973C11.1191 12.1348 11.3711 11.5254 11.9043 11.2617L12.25 11.0859C12.6367 10.8926 13.0879 10.8574 13.498 10.998L14.8574 11.4492C15.3379 11.6074 15.8652 11.4258 16.1406 11.0098C16.416 10.5996 16.3867 10.0547 16.0703 9.67383L15.2734 8.71875C14.6875 8.01562 14.6934 6.99023 15.291 6.29883L16.2109 5.22656C16.7266 4.62305 16.8086 3.76172 16.416 3.07617L16.2754 2.83008C16.0703 2.81836 15.8711 2.8125 15.666 2.8125C10.2285 2.8125 5.61719 6.38086 4.05273 11.3086ZM27.8594 15C27.8594 12.8438 27.2969 10.8164 26.3125 9.05273L24.8125 9.65625C23.8926 10.0254 23.418 11.0508 23.7285 11.9883L24.7188 14.959C24.9238 15.5684 25.4219 16.0312 26.043 16.1836L27.748 16.6113C27.8184 16.084 27.8535 15.5449 27.8535 15H27.8594ZM0.671875 15C0.671875 11.0218 2.25223 7.20644 5.06527 4.3934C7.87832 1.58035 11.6936 0 15.6719 0C19.6501 0 23.4654 1.58035 26.2785 4.3934C29.0915 7.20644 30.6719 11.0218 30.6719 15C30.6719 18.9782 29.0915 22.7936 26.2785 25.6066C23.4654 28.4196 19.6501 30 15.6719 30C11.6936 30 7.87832 28.4196 5.06527 25.6066C2.25223 22.7936 0.671875 18.9782 0.671875 15Z" fill="#BF608F"/>
</svg>
